<?xml version="1.0" encoding="UTF-8" standalone="no"?>
<!-- Created with Inkscape (http://www.inkscape.org/) -->
<svg
   xmlns:svg="http://www.w3.org/2000/svg"
   xmlns="http://www.w3.org/2000/svg"
   version="1.0"
   width="216.03778"
   height="255.51236"
   id="svg2">
  <defs
     id="defs5" />
  <g
     transform="translate(-276.42211,-65.804166)"
     id="g2413">
    <path
       d="M 276.42211,319.31663 C 276.42211,316.29776 277.8311,314.02791 286.9339,302.38237 C 291.44796,296.60737 295.41226,290.98237 295.74345,289.88237 C 296.07464,288.78237 297.25412,279.10737 298.36452,268.38237 C 299.47492,257.65737 300.60852,246.96987 300.88364,244.63237 L 301.38385,240.38237 L 293.02542,240.38237 C 283.96226,240.38237 281.99762,239.40383 282.59535,235.18741 C 282.91945,232.90112 283.08073,232.87616 302.42211,232.11929 C 313.14711,231.69959 323.93904,231.02459 326.40419,230.61929 L 330.88626,229.88237 L 336.09969,188.88237 C 340.92185,150.95949 347.38028,95.748193 348.99444,78.648933 C 349.36999,74.670543 350.26524,70.927525 350.98387,70.331115 C 351.7025,69.734705 356.48259,68.496754 361.60629,67.580113 C 376.31081,64.949442 429.51408,65.308421 455.32826,68.212484 C 478.01041,70.764198 482.25241,71.805822 483.51796,75.134474 C 486.54429,83.09432 482.31383,135.46353 474.77355,183.38237 C 473.34555,192.45737 472.11979,203.03237 472.04965,206.88237 C 471.9034,214.90907 470.80507,214.36192 484.15458,212.91261 C 492.10281,212.0497 493.28994,212.78851 492.02884,217.81314 C 491.36839,220.44458 487.20099,221.75512 474.93817,223.18771 L 468.95422,223.88679 L 467.66559,236.38458 C 466.06622,251.89609 461.35844,271.89453 457.38889,280.03961 C 451.65969,291.79528 440.682,300.57672 422.7432,307.7539 C 402.46217,315.8682 382.69202,318.19365 365.05679,314.53921 C 354.86131,312.42647 343.07253,307.50573 336.867,302.77254 C 331.42601,298.62249 328.27574,292.42797 327.65154,284.6518 C 327.20456,279.08342 326.56571,277.27773 323.7267,273.55842 C 321.86167,271.1151 319.73269,267.93845 318.99564,266.4992 C 316.87813,262.36431 316.10406,252.23138 317.42107,245.88738 C 318.06774,242.77239 318.42998,240.0569 318.22604,239.85297 C 318.0221,239.64903 315.34357,239.7414 312.27375,240.05823 L 306.69225,240.6343 L 305.07565,252.75833 C 304.18652,259.42655 303.16039,270.11337 302.79535,276.5068 L 302.13164,288.13124 L 305.23788,293.5068 C 306.94632,296.46337 311.06114,302.48237 314.38194,306.88237 C 323.04636,318.36256 322.90362,318.61453 306.92211,320.05021 C 299.77211,320.69253 289.98461,321.25503 285.17211,321.30021 C 276.96944,321.37723 276.42211,321.25315 276.42211,319.31663 z M 398.74376,308.37742 C 399.33019,307.77061 397.88186,292.50879 397.17032,291.79725 C 396.88976,291.51669 392.21914,292.39363 386.79116,293.746 C 381.36318,295.09837 375.01197,296.50896 372.67735,296.88063 C 370.34273,297.2523 368.16586,297.98798 367.83985,298.51547 C 367.51384,299.04296 367.56029,301.75166 367.94307,304.5348 L 368.63904,309.59507 L 368.76989,310.45363 L 374.57875,311.40067 L 380.50769,311.70715 C 388.65492,311.50844 398.48063,308.6497 398.74376,308.37742 z M 365.42211,303.31041 L 365.42211,298.23846 L 360.17211,298.84191 C 357.28461,299.17381 352.99533,299.59547 350.64037,299.77894 C 348.28542,299.9624 346.1174,300.35375 345.82255,300.6486 C 345.5075,300.96365 349.12309,303.6656 354.00408,305.55944 C 356.97184,306.71094 359.53156,307.97342 361.15541,308.36937 C 362.25541,308.63759 365.85907,309.85149 365.99657,309.91529 C 366.13407,309.97909 365.42211,306.09999 365.42211,303.31041 z M 413.96041,304.04507 L 423.92211,300.70776 L 424.20964,291.54507 C 424.44818,283.94324 424.24189,282.38237 422.99865,282.38237 C 422.17447,282.38237 416.52629,284.25808 410.44714,286.55062 C 401.9627,289.75024 399.4949,291.08645 399.82773,292.30062 C 400.06621,293.17058 400.55832,296.91987 400.92131,300.63237 C 401.3365,304.87871 402.02962,307.38237 402.79001,307.38237 C 403.4548,307.38237 408.48148,305.88058 413.96041,304.04507 z M 434.17211,294.95089 L 438.42211,292.11037 L 438.42211,284.24637 C 438.42211,279.92117 438.03212,276.38237 437.55546,276.38237 C 437.07881,276.38237 434.37881,277.34237 431.55546,278.5157 L 426.42211,280.64902 L 426.42211,289.34903 C 426.42211,298.20556 426.885,299.97968 428.8301,298.57821 C 429.43071,298.14547 431.83461,296.51318 434.17211,294.95089 z M 364.92211,295.75423 C 385.79655,292.94331 409.25839,285.66019 437.54643,273.20987 C 456.45761,264.88656 457.14519,264.41181 457.93714,259.13074 C 459.22375,250.55095 458.59375,249.21999 451.59842,245.73937 C 442.00404,240.96556 411.01081,232.72588 400.42211,232.13393 L 395.92211,231.88237 L 395.30704,243.88237 C 394.50307,259.56781 392.25547,265.7185 384.50948,273.43044 C 380.16746,277.75338 377.3225,279.58306 371.74529,281.63948 C 362.14568,285.17903 352.00364,285.98676 342.60673,283.9601 C 338.58328,283.09235 335.03852,282.38237 334.7295,282.38237 C 334.42049,282.38237 334.39209,284.71814 334.6664,287.57298 C 335.07123,291.78613 335.75405,293.28977 338.29239,295.55778 C 341.81948,298.70922 342.91752,298.71732 364.92211,295.75423 z M 445.67141,285.63237 C 449.02768,282.18905 455.7964,269.46052 454.80973,268.44783 C 454.57688,268.20883 451.2444,269.53326 447.40423,271.39102 L 440.42211,274.76875 L 440.42211,282.07556 C 440.42211,286.09431 440.78078,289.38237 441.21916,289.38237 C 441.65754,289.38237 443.66105,287.69487 445.67141,285.63237 z M 371.05919,274.01394 C 381.87209,269.07474 386.52798,262.05056 388.5727,247.5919 C 389.92434,238.03416 389.1317,232.03523 386.61741,232.79378 C 385.685,233.07509 378.62211,233.79001 370.92211,234.38251 C 363.22211,234.975 350.17805,236.22985 341.93532,237.17107 C 326.99679,238.87686 326.94399,238.89185 325.53794,241.82601 C 324.76212,243.44501 323.90811,247.83399 323.64013,251.5793 C 323.03632,260.01833 324.9231,265.51273 330.19146,270.65714 C 335.91994,276.25086 340.03275,277.38816 353.42211,277.08105 C 363.57144,276.84826 365.64291,276.48802 371.05919,274.01394 z M 368.51689,226.8905 C 383.03976,225.51997 408.87211,222.82047 425.92211,220.89159 C 442.97211,218.96272 457.3986,217.38406 457.98098,217.38346 C 461.16177,217.38018 462.53871,214.39888 464.90934,202.38237 C 466.26564,195.50737 467.38587,189.02398 467.39873,187.97484 C 467.42135,186.12962 466.58086,186.0894 441.67211,186.74358 C 394.32496,187.98707 344.43389,191.03725 342.67521,192.79594 C 342.12638,193.34477 340.24274,207.82893 338.79503,222.63237 C 338.17975,228.92388 338.26997,229.38237 340.12329,229.38237 C 341.21689,229.38237 353.99401,228.26103 368.51689,226.8905 z M 369.42211,182.41667 C 397.58984,180.73481 430.52937,179.1365 450.415,178.48668 L 468.9079,177.88237 L 469.62716,172.88237 C 473.95148,142.82141 477.34498,106.45953 477.39294,89.670913 L 477.42211,79.459457 L 473.17211,78.361393 C 470.83461,77.757457 468.24711,77.090538 467.42211,76.879351 C 462.79341,75.694474 438.38711,73.280684 421.90608,72.377803 C 393.6462,70.829642 359.66192,73.549543 355.78013,77.670135 C 354.1368,79.414553 347.82532,135.20956 345.97131,164.38237 C 345.63925,169.60737 345.09682,176.29423 344.76591,179.24205 L 344.16426,184.60173 L 348.04318,184.03165 C 350.17659,183.71811 359.79711,182.99137 369.42211,182.41667 z"
       id="path2417"
       style="fill:#000000;fill-opacity:1" />
  </g>
</svg>
